<svg width="51" height="50" viewBox="0 0 51 50" fill="none" xmlns="http://www.w3.org/2000/svg">
<rect x="0.666016" width="50" height="50" rx="25" fill="#1877F2"/>
<path d="M20.4629 22.3203H23.5566V19.4609C23.5566 19.4609 23.5879 19.0938 23.6504 18.3594C23.7285 17.625 24.1191 16.9062 24.8223 16.2031C25.541 15.4844 26.3848 15.1016 27.3535 15.0547C28.3379 14.9922 29.5098 15.0234 30.8691 15.1484V18.3359H28.8535C28.8535 18.3359 28.6973 18.3516 28.3848 18.3828C28.0723 18.4141 27.8145 18.5391 27.6113 18.7578C27.4238 18.9922 27.3145 19.2422 27.2832 19.5078C27.2676 19.7734 27.2598 19.9453 27.2598 20.0234V22.3203H30.752L30.3066 25.8594H27.2363V35H23.5566V25.8594H20.4629V22.3203Z" fill="white"/>
</svg>
