<svg width="18" height="17" viewBox="0 0 18 17" fill="none" xmlns="http://www.w3.org/2000/svg">
<path d="M14.8398 14.5V9.75391C14.8398 8.94661 14.5534 8.25651 13.9805 7.68359C13.4076 7.11068 12.7174 6.82422 11.9102 6.82422C11.5326 6.82422 11.1419 6.9349 10.7383 7.15625C10.3477 7.36458 10.0482 7.64453 9.83984 7.99609V7H7.33984V14.5H9.83984V10.0859C9.83984 9.73438 9.95703 9.44141 10.1914 9.20703C10.4388 8.95964 10.7383 8.83594 11.0898 8.83594C11.4284 8.83594 11.7214 8.95964 11.9688 9.20703C12.2161 9.44141 12.3398 9.73438 12.3398 10.0859V14.5H14.8398ZM4.41016 5.59375C4.82682 5.59375 5.1849 5.45052 5.48438 5.16406C5.78385 4.86458 5.93359 4.50651 5.93359 4.08984C5.93359 3.67318 5.78385 3.3151 5.48438 3.01562C5.1849 2.71615 4.82682 2.56641 4.41016 2.56641C3.99349 2.56641 3.63542 2.71615 3.33594 3.01562C3.04948 3.3151 2.90625 3.67318 2.90625 4.08984C2.90625 4.50651 3.04948 4.86458 3.33594 5.16406C3.63542 5.45052 3.99349 5.59375 4.41016 5.59375ZM5.66016 14.5V7H3.16016V14.5H5.66016ZM15.6602 0.339844C16.1289 0.339844 16.526 0.502604 16.8516 0.828125C17.1771 1.14062 17.3398 1.53125 17.3398 2V15.3398C17.3398 15.7956 17.1771 16.1862 16.8516 16.5117C16.526 16.8372 16.1289 17 15.6602 17H2.33984C1.87109 17 1.47396 16.8372 1.14844 16.5117C0.822917 16.1862 0.660156 15.7956 0.660156 15.3398V2C0.660156 1.53125 0.822917 1.14062 1.14844 0.828125C1.47396 0.502604 1.87109 0.339844 2.33984 0.339844H15.6602Z" fill="#333333"/>
</svg>
