<svg width="18" height="17" viewBox="0 0 18 17" fill="none" xmlns="http://www.w3.org/2000/svg">
<path d="M9 1.82422C7.89323 1.82422 7.16406 1.83724 6.8125 1.86328C6.46094 1.8763 6.0638 1.88281 5.62109 1.88281C5.23047 1.89583 4.91146 1.94141 4.66406 2.01953C4.41667 2.08464 4.22135 2.14974 4.07812 2.21484C3.86979 2.26693 3.69401 2.33854 3.55078 2.42969C3.40755 2.52083 3.26432 2.64453 3.12109 2.80078C3.00391 2.94401 2.89323 3.09375 2.78906 3.25C2.6849 3.39323 2.60026 3.5625 2.53516 3.75781C2.45703 3.90104 2.38542 4.09635 2.32031 4.34375C2.26823 4.57812 2.22917 4.89714 2.20312 5.30078C2.1901 5.73047 2.17708 6.1276 2.16406 6.49219C2.16406 6.84375 2.16406 7.56641 2.16406 8.66016C2.16406 9.76693 2.16406 10.5026 2.16406 10.8672C2.17708 11.2188 2.1901 11.6094 2.20312 12.0391C2.22917 12.4427 2.27474 12.7682 2.33984 13.0156C2.41797 13.25 2.48307 13.4388 2.53516 13.582C2.60026 13.7904 2.67839 13.9661 2.76953 14.1094C2.86068 14.2526 2.97786 14.3958 3.12109 14.5391C3.26432 14.6693 3.41406 14.7865 3.57031 14.8906C3.72656 14.9818 3.89583 15.0599 4.07812 15.125C4.22135 15.2031 4.41667 15.2747 4.66406 15.3398C4.91146 15.3919 5.23047 15.418 5.62109 15.418C6.0638 15.444 6.46094 15.457 6.8125 15.457C7.16406 15.457 7.89323 15.457 9 15.457C10.1068 15.457 10.8359 15.457 11.1875 15.457C11.5391 15.457 11.9362 15.444 12.3789 15.418C12.7695 15.3919 13.0885 15.3464 13.3359 15.2812C13.5833 15.2161 13.7786 15.1641 13.9219 15.125C14.1302 15.0599 14.306 14.9818 14.4492 14.8906C14.5924 14.7995 14.7357 14.6823 14.8789 14.5391C14.9961 14.3958 15.1068 14.2461 15.2109 14.0898C15.3151 13.9336 15.3997 13.7643 15.4648 13.582C15.543 13.4388 15.6081 13.25 15.6602 13.0156C15.7253 12.7682 15.7578 12.4427 15.7578 12.0391C15.7708 11.6094 15.7773 11.2188 15.7773 10.8672C15.7904 10.5026 15.7969 9.76693 15.7969 8.66016C15.7969 7.56641 15.7904 6.84375 15.7773 6.49219C15.7773 6.1276 15.7708 5.73047 15.7578 5.30078C15.7318 4.89714 15.6862 4.57812 15.6211 4.34375C15.556 4.09635 15.5039 3.90104 15.4648 3.75781C15.3997 3.54948 15.3216 3.3737 15.2305 3.23047C15.1393 3.08724 15.0221 2.94401 14.8789 2.80078C14.7357 2.67057 14.5859 2.55339 14.4297 2.44922C14.2734 2.34505 14.1042 2.26693 13.9219 2.21484C13.7786 2.1237 13.5833 2.05208 13.3359 2C13.0885 1.9349 12.7695 1.89583 12.3789 1.88281C11.9362 1.85677 11.5391 1.84375 11.1875 1.84375C10.8359 1.83073 10.1068 1.82422 9 1.82422ZM9 0.339844C10.1198 0.339844 10.8555 0.339844 11.207 0.339844C11.5716 0.339844 11.9753 0.352865 12.418 0.378906C12.8607 0.391927 13.2448 0.4375 13.5703 0.515625C13.9089 0.59375 14.2018 0.671875 14.4492 0.75C14.7227 0.880208 14.9831 1.01042 15.2305 1.14062C15.4909 1.27083 15.7318 1.45964 15.9531 1.70703C16.1875 1.95443 16.3763 2.20182 16.5195 2.44922C16.6628 2.68359 16.793 2.9375 16.9102 3.21094C17.0143 3.48438 17.099 3.78385 17.1641 4.10938C17.2292 4.4349 17.2747 4.8125 17.3008 5.24219C17.3138 5.6849 17.3203 6.08854 17.3203 6.45312C17.3333 6.80469 17.3398 7.54036 17.3398 8.66016C17.3398 9.79297 17.3333 10.5417 17.3203 10.9062C17.3203 11.2578 17.3138 11.6484 17.3008 12.0781C17.2747 12.5208 17.2227 12.9115 17.1445 13.25C17.0794 13.5885 17.0013 13.8815 16.9102 14.1289C16.806 14.4154 16.6758 14.6823 16.5195 14.9297C16.3763 15.1641 16.1875 15.3984 15.9531 15.6328C15.7057 15.8542 15.4583 16.0365 15.2109 16.1797C14.9766 16.3229 14.7227 16.4596 14.4492 16.5898C14.1888 16.694 13.8958 16.7786 13.5703 16.8438C13.2448 16.8958 12.8607 16.9349 12.418 16.9609C11.9753 16.974 11.5716 16.987 11.207 17C10.8555 17 10.1198 17 9 17C7.88021 17 7.13802 17 6.77344 17C6.42188 16.987 6.02474 16.974 5.58203 16.9609C5.13932 16.9349 4.7487 16.8893 4.41016 16.8242C4.08464 16.7461 3.79818 16.668 3.55078 16.5898C3.2513 16.4857 2.97786 16.3555 2.73047 16.1992C2.49609 16.043 2.26823 15.8542 2.04688 15.6328C1.8125 15.3724 1.6237 15.125 1.48047 14.8906C1.33724 14.6562 1.20703 14.4023 1.08984 14.1289C0.985677 13.8555 0.901042 13.556 0.835938 13.2305C0.770833 12.9049 0.72526 12.5208 0.699219 12.0781C0.686198 11.6484 0.673177 11.2578 0.660156 10.9062C0.660156 10.5417 0.660156 9.79297 0.660156 8.66016C0.660156 7.54036 0.660156 6.80469 0.660156 6.45312C0.673177 6.08854 0.686198 5.6849 0.699219 5.24219C0.72526 4.8125 0.770833 4.42839 0.835938 4.08984C0.914062 3.7513 0.998698 3.45833 1.08984 3.21094C1.20703 2.9375 1.33724 2.67708 1.48047 2.42969C1.6237 2.18229 1.8125 1.94141 2.04688 1.70703C2.26823 1.47266 2.5026 1.29036 2.75 1.16016C3.01042 1.01693 3.27734 0.880208 3.55078 0.75C3.8112 0.645833 4.10417 0.561198 4.42969 0.496094C4.75521 0.43099 5.13932 0.391927 5.58203 0.378906C6.02474 0.352865 6.42188 0.339844 6.77344 0.339844C7.13802 0.339844 7.88021 0.339844 9 0.339844ZM9 4.42188C9.59896 4.42188 10.1523 4.53255 10.6602 4.75391C11.181 4.97526 11.6302 5.27474 12.0078 5.65234C12.3984 6.02995 12.7044 6.47917 12.9258 7C13.1471 7.52083 13.2578 8.07422 13.2578 8.66016C13.2578 9.25911 13.1471 9.81901 12.9258 10.3398C12.7044 10.8477 12.3984 11.2969 12.0078 11.6875C11.6302 12.0651 11.181 12.3646 10.6602 12.5859C10.1523 12.8073 9.59896 12.918 9 12.918C8.40104 12.918 7.84115 12.8073 7.32031 12.5859C6.8125 12.3646 6.36328 12.0586 5.97266 11.668C5.59505 11.2773 5.29557 10.8281 5.07422 10.3203C4.85286 9.79948 4.74219 9.24609 4.74219 8.66016C4.74219 8.08724 4.85286 7.54036 5.07422 7.01953C5.29557 6.4987 5.59505 6.04948 5.97266 5.67188C6.36328 5.28125 6.8125 4.97526 7.32031 4.75391C7.84115 4.53255 8.40104 4.42188 9 4.42188ZM9 11.4531C9.76823 11.4531 10.4258 11.1862 10.9727 10.6523C11.5195 10.1055 11.793 9.44141 11.793 8.66016C11.793 7.89193 11.5195 7.23438 10.9727 6.6875C10.4258 6.14062 9.76823 5.86719 9 5.86719C8.23177 5.86719 7.57422 6.14062 7.02734 6.6875C6.48047 7.23438 6.20703 7.89193 6.20703 8.66016C6.20703 9.44141 6.48047 10.1055 7.02734 10.6523C7.57422 11.1862 8.23177 11.4531 9 11.4531ZM14.4492 4.20703C14.4492 3.93359 14.3516 3.69922 14.1562 3.50391C13.9609 3.30859 13.7266 3.21094 13.4531 3.21094C13.1797 3.21094 12.9453 3.30859 12.75 3.50391C12.5547 3.69922 12.457 3.93359 12.457 4.20703C12.457 4.48047 12.5547 4.71484 12.75 4.91016C12.9453 5.10547 13.1797 5.20312 13.4531 5.20312C13.7266 5.20312 13.9609 5.10547 14.1562 4.91016C14.3516 4.71484 14.4492 4.48047 14.4492 4.20703Z" fill="#333333"/>
</svg>
