<svg width="51" height="50" viewBox="0 0 51 50" fill="none" xmlns="http://www.w3.org/2000/svg">
<rect x="0.333984" width="50" height="50" rx="25" fill="#FEE500"/>
<path d="M25.334 15.9922C26.709 15.9922 28.0059 16.2031 29.2246 16.625C30.4434 17.0469 31.5059 17.6172 32.4121 18.3359C33.3184 19.0547 34.0293 19.8984 34.5449 20.8672C35.0762 21.8359 35.3418 22.8672 35.3418 23.9609C35.3418 25.0703 35.0762 26.1094 34.5449 27.0781C34.0293 28.0312 33.3184 28.875 32.4121 29.6094C31.5059 30.3281 30.4434 30.8984 29.2246 31.3203C28.0059 31.7266 26.709 31.9297 25.334 31.9297C25.0059 31.9297 24.6855 31.9219 24.373 31.9062C24.0605 31.875 23.7559 31.8359 23.459 31.7891L19.123 34.5547L19.873 30.6406C19.2012 30.2812 18.584 29.8672 18.0215 29.3984C17.459 28.9141 16.9746 28.3906 16.5684 27.8281C16.1777 27.25 15.873 26.6406 15.6543 26C15.4355 25.3438 15.3262 24.6641 15.3262 23.9609C15.3262 22.8672 15.584 21.8359 16.0996 20.8672C16.6309 19.8984 17.3496 19.0547 18.2559 18.3359C19.1621 17.6172 20.2246 17.0469 21.4434 16.625C22.6621 16.2031 23.959 15.9922 25.334 15.9922Z" fill="black"/>
</svg>
