<svg width="50" height="50" viewBox="0 0 50 50" fill="none" xmlns="http://www.w3.org/2000/svg">
<rect x="0.5" y="0.5" width="49" height="49" rx="24.5" stroke="#DDDDDD"/>
<path d="M20.9922 24.0078V26H29.0078V24.0078H20.9922ZM16 24.9922C16 26.1016 16.3906 27.0469 17.1719 27.8281C17.9531 28.6094 18.8984 29 20.0078 29H23.9922V30.9922H20.0078C19.1797 30.9922 18.3984 30.8359 17.6641 30.5234C16.9297 30.2109 16.2891 29.7891 15.7422 29.2578C15.2109 28.7109 14.7891 28.0703 14.4766 27.3359C14.1641 26.6016 14.0078 25.8203 14.0078 24.9922C14.0078 24.1641 14.1641 23.3906 14.4766 22.6719C14.7891 21.9375 15.2109 21.3047 15.7422 20.7734C16.2891 20.2266 16.9297 19.7969 17.6641 19.4844C18.3984 19.1562 19.1797 18.9922 20.0078 18.9922H23.9922V21.0078H20.0078C18.8984 21.0078 17.9531 21.3984 17.1719 22.1797C16.3906 22.9609 16 23.8984 16 24.9922ZM29.9922 18.9922C30.8203 18.9922 31.6016 19.1562 32.3359 19.4844C33.0703 19.7969 33.7031 20.2266 34.2344 20.7734C34.7812 21.3047 35.2109 21.9375 35.5234 22.6719C35.8359 23.3906 35.9922 24.1641 35.9922 24.9922C35.9922 25.8203 35.8359 26.6016 35.5234 27.3359C35.2109 28.0703 34.7812 28.7109 34.2344 29.2578C33.7031 29.7891 33.0703 30.2109 32.3359 30.5234C31.6016 30.8359 30.8203 30.9922 29.9922 30.9922H26.0078V29H29.9922C31.1016 29 32.0469 28.6094 32.8281 27.8281C33.6094 27.0469 34 26.1016 34 24.9922C34 23.8984 33.6094 22.9609 32.8281 22.1797C32.0469 21.3984 31.1016 21.0078 29.9922 21.0078H26.0078V18.9922H29.9922Z" fill="black"/>
</svg>
