<svg width="140" height="28" viewBox="0 0 140 28" fill="none" xmlns="http://www.w3.org/2000/svg">
<path d="M0.930237 25.4201L0.930233 2.65114C6.67634 6.54029 10.2818 13.0119 10.4583 19.9755L0.930237 25.4201Z" stroke="#FB483D" stroke-width="1.86047"/>
<path d="M12.3325 19.9755C12.509 13.0119 16.1145 6.54029 21.8606 2.65114L21.8606 25.4201L12.3325 19.9755Z" stroke="#FB483D" stroke-width="1.86047"/>
<path d="M33.6904 20.511L29.627 6.69922H33.6713L35.6171 15.3411H35.7316L38.0018 6.69922H41.2067L43.496 15.3793H43.6104L45.5563 6.69922H49.6006L45.5372 20.511H42.0461L39.6615 12.6131H39.547L37.1624 20.511H33.6904Z" fill="#FF4742"/>
<path d="M54.5988 20.7018C51.2985 20.7018 49.2763 18.6987 49.2763 15.3602C49.2763 12.1553 51.3175 10.0186 54.5225 10.0186C57.5939 10.0186 59.6351 12.0026 59.6351 15.322V16.1805H52.8437V16.314C52.8437 17.3824 53.5305 18.1454 54.6751 18.1454C55.4573 18.1454 56.0868 17.8021 56.3157 17.2107H59.6161C59.2536 19.3473 57.4222 20.7018 54.5988 20.7018ZM52.8437 14.1583H56.2966C56.2776 13.2236 55.5526 12.5749 54.5988 12.5749C53.6354 12.5749 52.8723 13.2331 52.8437 14.1583Z" fill="#FF4742"/>
<path d="M61.1422 20.511V6.69922H64.7478V11.9454H64.805C65.2056 10.9152 66.1595 10.0186 67.7238 10.0186C69.8032 10.0186 71.7872 11.602 71.7872 15.3411C71.7872 18.9085 69.9177 20.6445 67.6856 20.6445C66.1976 20.6445 65.2247 19.8433 64.805 18.8131H64.7096V20.511H61.1422ZM64.6524 15.322C64.6524 16.8864 65.301 17.8784 66.3884 17.8784C67.4567 17.8784 68.0672 16.9054 68.0672 15.322C68.0672 13.7577 67.4567 12.8039 66.3884 12.8039C65.301 12.8039 64.6524 13.7577 64.6524 15.322Z" fill="#FF4742"/>
<path d="M73.3515 20.511V6.69922H79.2272C82.3177 6.69922 84.3399 8.45431 84.3399 11.3731C84.3399 13.2808 83.4623 14.6353 81.9743 15.3411L84.7977 20.511H80.8488L78.4069 15.9134H76.9762V20.511H73.3515ZM76.9762 13.0709H78.3879C79.7614 13.0709 80.5436 12.5749 80.5436 11.3731C80.5436 10.1522 79.7614 9.59893 78.3879 9.59893H76.9762V13.0709Z" fill="#FF4742"/>
<path d="M85.5227 17.6494C85.5227 15.3602 87.2205 14.4826 89.3381 14.3491L91.7609 14.2537V13.4143C91.7609 12.842 91.2839 12.5177 90.5781 12.5177C89.8341 12.5177 89.3572 12.842 89.2618 13.4906H85.9233C86.0568 11.602 87.583 10.0186 90.6353 10.0186C93.5159 10.0186 95.3664 11.4303 95.3664 13.4334V20.511H91.9898V19.0611H91.9135C91.303 20.1867 90.2729 20.6827 88.8993 20.6827C86.9153 20.6827 85.5227 19.7098 85.5227 17.6494ZM88.9184 17.4396C88.9184 18.0501 89.3953 18.3744 90.063 18.3744C90.9596 18.3744 91.799 17.8021 91.7799 16.8291V16.2759C91.4175 16.2854 90.4636 16.3236 89.9867 16.3713C89.3381 16.4476 88.9184 16.8864 88.9184 17.4396Z" fill="#FF4742"/>
<path d="M100.803 14.6543V20.511H97.1978V10.1522H100.613V12.098H100.727C101.185 10.8008 102.368 10.0186 103.894 10.0186C106.088 10.0186 107.518 11.6211 107.499 13.9103V20.511H103.894V14.6543C103.913 13.586 103.341 12.9565 102.368 12.9565C101.414 12.9565 100.803 13.586 100.803 14.6543Z" fill="#FF4742"/>
<path d="M109.388 20.511V6.69922H112.994V13.7005H113.127L115.741 10.1522H119.804L116.256 14.6925L119.919 20.511H115.779L113.585 16.791L112.994 17.5159V20.511H109.388Z" fill="#FF4742"/>
<path d="M125.317 20.7018C122.017 20.7018 119.995 18.6987 119.995 15.3602C119.995 12.1553 122.036 10.0186 125.241 10.0186C128.312 10.0186 130.354 12.0026 130.354 15.322V16.1805H123.562V16.314C123.562 17.3824 124.249 18.1454 125.394 18.1454C126.176 18.1454 126.805 17.8021 127.034 17.2107H130.335C129.972 19.3473 128.141 20.7018 125.317 20.7018ZM123.562 14.1583H127.015C126.996 13.2236 126.271 12.5749 125.317 12.5749C124.354 12.5749 123.591 13.2331 123.562 14.1583Z" fill="#FF4742"/>
<path d="M131.899 20.511V10.1522H135.39V12.098H135.505C135.886 10.6672 136.745 10.0186 137.87 10.0186C138.194 10.0186 138.519 10.0568 138.805 10.1331V13.2426C138.442 13.1091 137.832 13.0519 137.45 13.0519C136.325 13.0519 135.505 13.8531 135.505 15.055V20.511H131.899Z" fill="#FF4742"/>
</svg>
