<svg width="18" height="13" viewBox="0 0 18 13" fill="none" xmlns="http://www.w3.org/2000/svg">
<path d="M12.5742 6.66016C12.5742 6.55599 12.5482 6.46484 12.4961 6.38672C12.457 6.29557 12.3919 6.22396 12.3008 6.17188L7.53516 3.18359C7.43099 3.11849 7.32682 3.08594 7.22266 3.08594C7.13151 3.08594 7.03385 3.11198 6.92969 3.16406C6.82552 3.22917 6.7474 3.30729 6.69531 3.39844C6.64323 3.47656 6.61719 3.57422 6.61719 3.69141V9.64844C6.61719 9.76562 6.64323 9.86979 6.69531 9.96094C6.7474 10.0391 6.82552 10.1042 6.92969 10.1562C6.98177 10.1823 7.02734 10.2018 7.06641 10.2148C7.11849 10.2279 7.17057 10.2344 7.22266 10.2344C7.27474 10.2344 7.32682 10.2279 7.37891 10.2148C7.43099 10.2018 7.48307 10.1758 7.53516 10.1367L12.3008 7.16797C12.3919 7.11589 12.457 7.05078 12.4961 6.97266C12.5482 6.88151 12.5742 6.77734 12.5742 6.66016ZM17.3398 6.66016C17.3398 6.95964 17.3333 7.22656 17.3203 7.46094C17.3203 7.69531 17.3203 7.89714 17.3203 8.06641C17.3203 8.23568 17.3138 8.42448 17.3008 8.63281C17.2878 8.84115 17.2682 9.07552 17.2422 9.33594C17.2161 9.58333 17.1836 9.82422 17.1445 10.0586C17.1185 10.293 17.0794 10.5078 17.0273 10.7031C16.9883 10.9245 16.9102 11.1328 16.793 11.3281C16.6888 11.5234 16.5586 11.6992 16.4023 11.8555C16.2331 11.9987 16.0508 12.1159 15.8555 12.207C15.6602 12.2982 15.4583 12.3568 15.25 12.3828C14.5599 12.4609 13.694 12.5195 12.6523 12.5586C11.6107 12.5977 10.3932 12.6172 9 12.6172C7.60677 12.6172 6.38932 12.5977 5.34766 12.5586C4.30599 12.5195 3.4401 12.4609 2.75 12.3828C2.54167 12.3568 2.33984 12.2982 2.14453 12.207C1.94922 12.1159 1.76693 11.9987 1.59766 11.8555C1.42839 11.6992 1.29167 11.5234 1.1875 11.3281C1.08333 11.1328 1.00521 10.9245 0.953125 10.7031C0.914062 10.5078 0.875 10.293 0.835938 10.0586C0.809896 9.82422 0.783854 9.58333 0.757812 9.33594C0.731771 9.07552 0.71224 8.84115 0.699219 8.63281C0.686198 8.42448 0.679688 8.23568 0.679688 8.06641C0.679688 7.89714 0.673177 7.69531 0.660156 7.46094C0.660156 7.22656 0.660156 6.95964 0.660156 6.66016C0.660156 6.36068 0.660156 6.10026 0.660156 5.87891C0.673177 5.64453 0.679688 5.44271 0.679688 5.27344C0.679688 5.10417 0.686198 4.91536 0.699219 4.70703C0.71224 4.4987 0.731771 4.26432 0.757812 4.00391C0.783854 3.74349 0.809896 3.5026 0.835938 3.28125C0.875 3.04688 0.920573 2.83203 0.972656 2.63672C1.01172 2.40234 1.08333 2.19401 1.1875 2.01172C1.30469 1.81641 1.44141 1.64062 1.59766 1.48438C1.76693 1.32812 1.94922 1.20443 2.14453 1.11328C2.33984 1.02214 2.54167 0.963542 2.75 0.9375C3.4401 0.872396 4.30599 0.820312 5.34766 0.78125C6.38932 0.742188 7.60677 0.722656 9 0.722656C10.3932 0.722656 11.6107 0.742188 12.6523 0.78125C13.694 0.820312 14.5599 0.872396 15.25 0.9375C15.4583 0.963542 15.6602 1.02214 15.8555 1.11328C16.0508 1.20443 16.2331 1.32812 16.4023 1.48438C16.5716 1.64062 16.7083 1.81641 16.8125 2.01172C16.9167 2.19401 16.9948 2.40234 17.0469 2.63672C17.0859 2.83203 17.1185 3.04688 17.1445 3.28125C17.1836 3.5026 17.2161 3.74349 17.2422 4.00391C17.2682 4.26432 17.2878 4.4987 17.3008 4.70703C17.3138 4.91536 17.3203 5.10417 17.3203 5.27344C17.3203 5.44271 17.3203 5.64453 17.3203 5.87891C17.3333 6.10026 17.3398 6.36068 17.3398 6.66016Z" fill="#333333"/>
</svg>
