<svg width="10" height="19" viewBox="0 0 10 19" fill="none" xmlns="http://www.w3.org/2000/svg">
<path d="M0.230469 7.37695H3.06641V4.75586C3.06641 4.75586 3.09505 4.41927 3.15234 3.74609C3.22396 3.07292 3.58203 2.41406 4.22656 1.76953C4.88542 1.11068 5.65885 0.759766 6.54688 0.716797C7.44922 0.659505 8.52344 0.688151 9.76953 0.802734V3.72461H7.92188C7.92188 3.72461 7.77865 3.73893 7.49219 3.76758C7.20573 3.79622 6.9694 3.91081 6.7832 4.11133C6.61133 4.32617 6.51107 4.55534 6.48242 4.79883C6.4681 5.04232 6.46094 5.19987 6.46094 5.27148V7.37695H9.66211L9.25391 10.6211H6.43945V19H3.06641V10.6211H0.230469V7.37695Z" fill="#3B5998"/>
</svg>
