<svg width="20" height="19" viewBox="0 0 20 19" fill="none" xmlns="http://www.w3.org/2000/svg">
<path d="M10 2.30664C8.78255 2.30664 7.98047 2.32096 7.59375 2.34961C7.20703 2.36393 6.77018 2.37109 6.2832 2.37109C5.85352 2.38542 5.5026 2.43555 5.23047 2.52148C4.95833 2.5931 4.74349 2.66471 4.58594 2.73633C4.35677 2.79362 4.16341 2.8724 4.00586 2.97266C3.84831 3.07292 3.69076 3.20898 3.5332 3.38086C3.4043 3.53841 3.28255 3.70312 3.16797 3.875C3.05339 4.03255 2.96029 4.21875 2.88867 4.43359C2.80273 4.59115 2.72396 4.80599 2.65234 5.07812C2.59505 5.33594 2.55208 5.68685 2.52344 6.13086C2.50911 6.60352 2.49479 7.04036 2.48047 7.44141C2.48047 7.82812 2.48047 8.62305 2.48047 9.82617C2.48047 11.0436 2.48047 11.8529 2.48047 12.2539C2.49479 12.6406 2.50911 13.0703 2.52344 13.543C2.55208 13.987 2.60221 14.3451 2.67383 14.6172C2.75977 14.875 2.83138 15.0827 2.88867 15.2402C2.96029 15.4694 3.04622 15.6628 3.14648 15.8203C3.24674 15.9779 3.37565 16.1354 3.5332 16.293C3.69076 16.4362 3.85547 16.5651 4.02734 16.6797C4.19922 16.7799 4.38542 16.8659 4.58594 16.9375C4.74349 17.0234 4.95833 17.1022 5.23047 17.1738C5.5026 17.2311 5.85352 17.2598 6.2832 17.2598C6.77018 17.2884 7.20703 17.3027 7.59375 17.3027C7.98047 17.3027 8.78255 17.3027 10 17.3027C11.2174 17.3027 12.0195 17.3027 12.4062 17.3027C12.793 17.3027 13.2298 17.2884 13.7168 17.2598C14.1465 17.2311 14.4974 17.181 14.7695 17.1094C15.0417 17.0378 15.2565 16.9805 15.4141 16.9375C15.6432 16.8659 15.8366 16.7799 15.9941 16.6797C16.1517 16.5794 16.3092 16.4505 16.4668 16.293C16.5957 16.1354 16.7174 15.9707 16.832 15.7988C16.9466 15.627 17.0397 15.4408 17.1113 15.2402C17.1973 15.0827 17.2689 14.875 17.3262 14.6172C17.3978 14.3451 17.4336 13.987 17.4336 13.543C17.4479 13.0703 17.4551 12.6406 17.4551 12.2539C17.4694 11.8529 17.4766 11.0436 17.4766 9.82617C17.4766 8.62305 17.4694 7.82812 17.4551 7.44141C17.4551 7.04036 17.4479 6.60352 17.4336 6.13086C17.4049 5.68685 17.3548 5.33594 17.2832 5.07812C17.2116 4.80599 17.1543 4.59115 17.1113 4.43359C17.0397 4.20443 16.9538 4.01107 16.8535 3.85352C16.7533 3.69596 16.6243 3.53841 16.4668 3.38086C16.3092 3.23763 16.1445 3.10872 15.9727 2.99414C15.8008 2.87956 15.6146 2.79362 15.4141 2.73633C15.2565 2.63607 15.0417 2.55729 14.7695 2.5C14.4974 2.42839 14.1465 2.38542 13.7168 2.37109C13.2298 2.34245 12.793 2.32812 12.4062 2.32812C12.0195 2.3138 11.2174 2.30664 10 2.30664ZM10 0.673828C11.2318 0.673828 12.041 0.673828 12.4277 0.673828C12.8288 0.673828 13.2728 0.688151 13.7598 0.716797C14.2467 0.73112 14.6693 0.78125 15.0273 0.867188C15.3997 0.953125 15.722 1.03906 15.9941 1.125C16.2949 1.26823 16.5814 1.41146 16.8535 1.55469C17.14 1.69792 17.4049 1.9056 17.6484 2.17773C17.9062 2.44987 18.1139 2.72201 18.2715 2.99414C18.429 3.25195 18.5723 3.53125 18.7012 3.83203C18.8158 4.13281 18.9089 4.46224 18.9805 4.82031C19.0521 5.17839 19.1022 5.59375 19.1309 6.06641C19.1452 6.55339 19.1523 6.9974 19.1523 7.39844C19.1667 7.78516 19.1738 8.5944 19.1738 9.82617C19.1738 11.0723 19.1667 11.8958 19.1523 12.2969C19.1523 12.6836 19.1452 13.1133 19.1309 13.5859C19.1022 14.0729 19.0449 14.5026 18.959 14.875C18.8874 15.2474 18.8014 15.5697 18.7012 15.8418C18.5866 16.1569 18.4434 16.4505 18.2715 16.7227C18.1139 16.9805 17.9062 17.2383 17.6484 17.4961C17.3763 17.7396 17.1042 17.9401 16.832 18.0977C16.5742 18.2552 16.2949 18.4056 15.9941 18.5488C15.7077 18.6634 15.3854 18.7565 15.0273 18.8281C14.6693 18.8854 14.2467 18.9284 13.7598 18.957C13.2728 18.9714 12.8288 18.9857 12.4277 19C12.041 19 11.2318 19 10 19C8.76823 19 7.95182 19 7.55078 19C7.16406 18.9857 6.72721 18.9714 6.24023 18.957C5.75326 18.9284 5.32357 18.8783 4.95117 18.8066C4.5931 18.7207 4.27799 18.6348 4.00586 18.5488C3.67643 18.4342 3.37565 18.291 3.10352 18.1191C2.8457 17.9473 2.59505 17.7396 2.35156 17.4961C2.09375 17.2096 1.88607 16.9375 1.72852 16.6797C1.57096 16.4219 1.42773 16.1426 1.29883 15.8418C1.18424 15.541 1.09115 15.2116 1.01953 14.8535C0.947917 14.4954 0.897786 14.0729 0.869141 13.5859C0.854818 13.1133 0.840495 12.6836 0.826172 12.2969C0.826172 11.8958 0.826172 11.0723 0.826172 9.82617C0.826172 8.5944 0.826172 7.78516 0.826172 7.39844C0.840495 6.9974 0.854818 6.55339 0.869141 6.06641C0.897786 5.59375 0.947917 5.17122 1.01953 4.79883C1.10547 4.42643 1.19857 4.10417 1.29883 3.83203C1.42773 3.53125 1.57096 3.24479 1.72852 2.97266C1.88607 2.70052 2.09375 2.43555 2.35156 2.17773C2.59505 1.91992 2.85286 1.7194 3.125 1.57617C3.41146 1.41862 3.70508 1.26823 4.00586 1.125C4.29232 1.01042 4.61458 0.917318 4.97266 0.845703C5.33073 0.774089 5.75326 0.73112 6.24023 0.716797C6.72721 0.688151 7.16406 0.673828 7.55078 0.673828C7.95182 0.673828 8.76823 0.673828 10 0.673828ZM10 5.16406C10.6589 5.16406 11.2676 5.28581 11.8262 5.5293C12.3991 5.77279 12.8932 6.10221 13.3086 6.51758C13.7383 6.93294 14.0749 7.42708 14.3184 8C14.5618 8.57292 14.6836 9.18164 14.6836 9.82617C14.6836 10.485 14.5618 11.1009 14.3184 11.6738C14.0749 12.2324 13.7383 12.7266 13.3086 13.1562C12.8932 13.5716 12.3991 13.901 11.8262 14.1445C11.2676 14.388 10.6589 14.5098 10 14.5098C9.34115 14.5098 8.72526 14.388 8.15234 14.1445C7.59375 13.901 7.09961 13.5645 6.66992 13.1348C6.25456 12.7051 5.92513 12.2109 5.68164 11.6523C5.43815 11.0794 5.31641 10.4707 5.31641 9.82617C5.31641 9.19596 5.43815 8.5944 5.68164 8.02148C5.92513 7.44857 6.25456 6.95443 6.66992 6.53906C7.09961 6.10938 7.59375 5.77279 8.15234 5.5293C8.72526 5.28581 9.34115 5.16406 10 5.16406ZM10 12.8984C10.8451 12.8984 11.5684 12.6048 12.1699 12.0176C12.7715 11.416 13.0723 10.6855 13.0723 9.82617C13.0723 8.98112 12.7715 8.25781 12.1699 7.65625C11.5684 7.05469 10.8451 6.75391 10 6.75391C9.15495 6.75391 8.43164 7.05469 7.83008 7.65625C7.22852 8.25781 6.92773 8.98112 6.92773 9.82617C6.92773 10.6855 7.22852 11.416 7.83008 12.0176C8.43164 12.6048 9.15495 12.8984 10 12.8984ZM15.9941 4.92773C15.9941 4.62695 15.8867 4.36914 15.6719 4.1543C15.457 3.93945 15.1992 3.83203 14.8984 3.83203C14.5977 3.83203 14.3398 3.93945 14.125 4.1543C13.9102 4.36914 13.8027 4.62695 13.8027 4.92773C13.8027 5.22852 13.9102 5.48633 14.125 5.70117C14.3398 5.91602 14.5977 6.02344 14.8984 6.02344C15.1992 6.02344 15.457 5.91602 15.6719 5.70117C15.8867 5.48633 15.9941 5.22852 15.9941 4.92773Z" fill="#E1306C"/>
</svg>
