<svg width="20" height="14" viewBox="0 0 20 14" fill="none" xmlns="http://www.w3.org/2000/svg">
<path d="M13.9316 6.82617C13.9316 6.71159 13.903 6.61133 13.8457 6.52539C13.8027 6.42513 13.7311 6.34635 13.6309 6.28906L8.38867 3.00195C8.27409 2.93034 8.15951 2.89453 8.04492 2.89453C7.94466 2.89453 7.83724 2.92318 7.72266 2.98047C7.60807 3.05208 7.52214 3.13802 7.46484 3.23828C7.40755 3.32422 7.37891 3.43164 7.37891 3.56055V10.1133C7.37891 10.2422 7.40755 10.3568 7.46484 10.457C7.52214 10.543 7.60807 10.6146 7.72266 10.6719C7.77995 10.7005 7.83008 10.722 7.87305 10.7363C7.93034 10.7507 7.98763 10.7578 8.04492 10.7578C8.10221 10.7578 8.15951 10.7507 8.2168 10.7363C8.27409 10.722 8.33138 10.6934 8.38867 10.6504L13.6309 7.38477C13.7311 7.32747 13.8027 7.25586 13.8457 7.16992C13.903 7.06966 13.9316 6.95508 13.9316 6.82617ZM19.1738 6.82617C19.1738 7.1556 19.1667 7.44922 19.1523 7.70703C19.1523 7.96484 19.1523 8.18685 19.1523 8.37305C19.1523 8.55924 19.1452 8.76693 19.1309 8.99609C19.1165 9.22526 19.0951 9.48307 19.0664 9.76953C19.0378 10.0417 19.002 10.3066 18.959 10.5645C18.9303 10.8223 18.8874 11.0586 18.8301 11.2734C18.7871 11.5169 18.7012 11.7461 18.5723 11.9609C18.4577 12.1758 18.3145 12.3691 18.1426 12.541C17.9564 12.6986 17.7559 12.8275 17.541 12.9277C17.3262 13.028 17.1042 13.0924 16.875 13.1211C16.1159 13.207 15.1634 13.2715 14.0176 13.3145C12.8717 13.3574 11.5326 13.3789 10 13.3789C8.46745 13.3789 7.12826 13.3574 5.98242 13.3145C4.83659 13.2715 3.88411 13.207 3.125 13.1211C2.89583 13.0924 2.67383 13.028 2.45898 12.9277C2.24414 12.8275 2.04362 12.6986 1.85742 12.541C1.67122 12.3691 1.52083 12.1758 1.40625 11.9609C1.29167 11.7461 1.20573 11.5169 1.14844 11.2734C1.10547 11.0586 1.0625 10.8223 1.01953 10.5645C0.990885 10.3066 0.96224 10.0417 0.933594 9.76953C0.904948 9.48307 0.883464 9.22526 0.869141 8.99609C0.854818 8.76693 0.847656 8.55924 0.847656 8.37305C0.847656 8.18685 0.840495 7.96484 0.826172 7.70703C0.826172 7.44922 0.826172 7.1556 0.826172 6.82617C0.826172 6.49674 0.826172 6.21029 0.826172 5.9668C0.840495 5.70898 0.847656 5.48698 0.847656 5.30078C0.847656 5.11458 0.854818 4.9069 0.869141 4.67773C0.883464 4.44857 0.904948 4.19076 0.933594 3.9043C0.96224 3.61784 0.990885 3.35286 1.01953 3.10938C1.0625 2.85156 1.11263 2.61523 1.16992 2.40039C1.21289 2.14258 1.29167 1.91341 1.40625 1.71289C1.53516 1.49805 1.68555 1.30469 1.85742 1.13281C2.04362 0.960938 2.24414 0.82487 2.45898 0.724609C2.67383 0.624349 2.89583 0.559896 3.125 0.53125C3.88411 0.459635 4.83659 0.402344 5.98242 0.359375C7.12826 0.316406 8.46745 0.294922 10 0.294922C11.5326 0.294922 12.8717 0.316406 14.0176 0.359375C15.1634 0.402344 16.1159 0.459635 16.875 0.53125C17.1042 0.559896 17.3262 0.624349 17.541 0.724609C17.7559 0.82487 17.9564 0.960938 18.1426 1.13281C18.3288 1.30469 18.4792 1.49805 18.5938 1.71289C18.7083 1.91341 18.7943 2.14258 18.8516 2.40039C18.8945 2.61523 18.9303 2.85156 18.959 3.10938C19.002 3.35286 19.0378 3.61784 19.0664 3.9043C19.0951 4.19076 19.1165 4.44857 19.1309 4.67773C19.1452 4.9069 19.1523 5.11458 19.1523 5.30078C19.1523 5.48698 19.1523 5.70898 19.1523 5.9668C19.1667 6.21029 19.1738 6.49674 19.1738 6.82617Z" fill="#C4302B"/>
</svg>
